<svg xmlns="http://www.w3.org/2000/svg" xmlns:xlink="http://www.w3.org/1999/xlink" width="97.332" height="52.714" viewBox="0 0 97.332 52.714"><defs><style>.a{fill:url(#a);}.b{fill:url(#b);}.c{fill:url(#c);}.d{fill:url(#d);}.e{fill:url(#e);}.f{fill:#1e1e1e;}</style><linearGradient id="a" y1="0.5" x2="1" y2="0.5" gradientUnits="objectBoundingBox"><stop offset="0" stop-color="#f7ac1c"/><stop offset="0.181" stop-color="#f6b11d"/><stop offset="0.451" stop-color="#f2be1f"/><stop offset="0.776" stop-color="#ebd123"/><stop offset="1" stop-color="#e5e128"/></linearGradient><linearGradient id="b" y1="0.5" x2="1" y2="0.5" gradientUnits="objectBoundingBox"><stop offset="0" stop-color="#fbb042"/><stop offset="0.329" stop-color="#fbab3b"/><stop offset="0.818" stop-color="#f99c29"/><stop offset="1" stop-color="#f89521"/></linearGradient><linearGradient id="c" y1="0.5" x2="1" y2="0.5" gradientUnits="objectBoundingBox"><stop offset="0" stop-color="#f89521"/><stop offset="0.197" stop-color="#f79022"/><stop offset="0.491" stop-color="#f58226"/><stop offset="0.843" stop-color="#f26a2a"/><stop offset="1" stop-color="#f15b2b"/></linearGradient><linearGradient id="d" x1="0.252" y1="0.5" x2="1.252" y2="0.5" gradientUnits="objectBoundingBox"><stop offset="0" stop-color="#f15b2b"/><stop offset="0.431" stop-color="#f1542f"/><stop offset="1" stop-color="#ef4237"/></linearGradient><linearGradient id="e" y1="0.5" x2="1" y2="0.5" gradientUnits="objectBoundingBox"><stop offset="0" stop-color="#ef4237"/><stop offset="1" stop-color="#be202e"/></linearGradient></defs><g transform="translate(0 0)"><g transform="translate(0 0)"><path class="a" d="M260.59,56.218s3.275.354,8.953,7.64c6.954,8.924,9.549,12.846,11.65,12.846,2.5,0,5.175-5.016,8.83-13.51,0,0-6.5,8.677-13.479,1.66s-8.533-8.765-11.41-11.543C265.134,53.313,261.364,53.56,260.59,56.218Z" transform="translate(-192.691 -39.42)"/><path class="b" d="M197.87,64.5a102.153,102.153,0,0,0,7.746-6.866c3.077-3.148,7.827-8.408,9.992-8.528s2.957.115,5.745,3.658c0,0-5.9-2.217-9,2.1,0,0-4.88,6.423-5.964,8.307C206.39,63.17,200.348,67.6,197.87,64.5Z" transform="translate(-146.313 -36.294)"/><path class="c" d="M125.23,56.218s3.275.354,8.953,7.64c6.954,8.924,9.55,12.846,11.65,12.846,2.5,0,5.117-5.412,8.932-13.489,0,0-6.6,8.653-13.58,1.639s-8.533-8.765-11.41-11.543C129.777,53.313,126.006,53.56,125.23,56.218Z" transform="translate(-92.6 -39.42)"/><path class="d" d="M15.02,70.268s-1.86-2.327.464-2.327c0,0,5,2.991,20.178-13.9,0,0,5.719-6.084,8.674-5.758,2.074-.07,3.455.857,4.852,2.668a10.69,10.69,0,0,0-8.025,2.869c-3.7,3.429-7.668,9.135-12.9,14.784,0,0-1.394,3.987-9.18,5.315C19.084,73.921,16.878,73.59,15.02,70.268Z" transform="translate(-10.585 -35.694)"/><path class="e" d="M26.645,22.351a83.559,83.559,0,0,1-5.48,8.317c-3.056,3.916-5.018,5.649-7.59,7.09C8.093,40.83,3.311,39.347,1.219,31.713c-3.286-12,.112-25.152,9.659-30.5,4.8-2.694,8.184-.618,9.289,3.408,1.193,4.362-.232,9.708-3.742,13.995A33.216,33.216,0,0,1,5.062,27.3a25.653,25.653,0,0,0,.576,2.837c1.524,6.1,5.138,6.3,9.266,3.981a25.091,25.091,0,0,0,4.45-3.762C21.7,27.88,26.645,22.351,26.645,22.351ZM10.253,3.5c-4.2,2.35-6.238,12.007-5.334,22.145a19.024,19.024,0,0,0,7.731-6.556c2.452-3.309,3.677-7.963,2.619-11.822C14.44,4.25,12.759,2.095,10.253,3.5Z" transform="translate(0 0)"/></g><path class="f" d="M7.109,181.1H3.278v.138c0,1.316.618,1.92,1.67,1.92A14.4,14.4,0,0,0,6.9,183H6.96a.162.162,0,0,1,.182.159v.388c0,.149-.047.229-.229.263a9.606,9.606,0,0,1-1.967.2,2.486,2.486,0,0,1-2.676-2.824v-.8a2.52,2.52,0,0,1,2.538-2.824c1.67,0,2.514,1.188,2.514,2.811v.479C7.325,181,7.247,181.1,7.109,181.1Zm-.8-.823c0-1.222-.492-1.84-1.5-1.84-.982,0-1.532.662-1.532,1.84v.057h3.03Z" transform="translate(-1.679 -131.295)"/><path class="f" d="M32.47,177.6h-.594a.217.217,0,0,1-.206-.229v-8.15a.207.207,0,0,1,.206-.216h.594a.207.207,0,0,1,.206.216v8.15A.218.218,0,0,1,32.47,177.6Z" transform="translate(-23.418 -124.965)"/><path class="f" d="M50.449,181.1h-3.83v.138c0,1.316.618,1.92,1.67,1.92A14.4,14.4,0,0,0,50.243,183H50.3a.162.162,0,0,1,.182.159v.388c0,.149-.047.229-.229.263a9.606,9.606,0,0,1-1.967.2,2.486,2.486,0,0,1-2.676-2.824v-.8a2.52,2.52,0,0,1,2.538-2.824c1.67,0,2.514,1.188,2.514,2.811v.479C50.665,181,50.584,181.1,50.449,181.1Zm-.8-.823c0-1.222-.492-1.84-1.5-1.84-.982,0-1.532.662-1.532,1.84v.057h3.03Z" transform="translate(-33.726 -131.295)"/><path class="f" d="M77.651,183.881a8.381,8.381,0,0,1-1.428.125c-1.556,0-2.434-1.1-2.434-2.778v-.891c0-1.681.868-2.778,2.434-2.778a8.455,8.455,0,0,1,1.428.125c.182.034.229.091.229.25v.412a.175.175,0,0,1-.2.172h-.047a11.112,11.112,0,0,0-1.417-.081c-.915,0-1.428.6-1.428,1.9v.891c0,1.279.5,1.9,1.428,1.9a11.109,11.109,0,0,0,1.417-.081h.047a.176.176,0,0,1,.2.172v.412C77.881,183.777,77.834,183.847,77.651,183.881Z" transform="translate(-54.564 -131.295)"/><path class="f" d="M101.578,180.108a8.637,8.637,0,0,1-1.1.068c-1.074,0-1.691-.354-1.691-1.589v-5.9a.241.241,0,0,1,.229-.216l.56-.091H99.6a.205.205,0,0,1,.2.216v1.212h1.782a.2.2,0,0,1,.216.206v.388a.207.207,0,0,1-.216.206H99.8v3.979c0,.662.216.776.847.776h.925c.159,0,.24.047.24.159v.388C101.8,180.017,101.747,180.085,101.578,180.108Z" transform="translate(-73.05 -127.465)"/><path class="f" d="M121.425,178.431a7.169,7.169,0,0,0-1.589.115v5.143a.218.218,0,0,1-.206.229h-.594a.217.217,0,0,1-.206-.229v-5.555a.291.291,0,0,1,.206-.263,6.011,6.011,0,0,1,2.389-.32c.149,0,.24.01.24.172v.526C121.665,178.376,121.641,178.431,121.425,178.431Z" transform="translate(-87.868 -131.288)"/><path class="f" d="M140.488,184.014c-1.681,0-2.538-1.11-2.538-2.788v-.868c0-1.681.857-2.788,2.538-2.788s2.548,1.11,2.548,2.788v.868C143.036,182.9,142.168,184.014,140.488,184.014Zm1.543-3.658c0-1.165-.469-1.91-1.543-1.91s-1.532.732-1.532,1.91v.868c0,1.167.456,1.91,1.532,1.91s1.543-.732,1.543-1.91Z" transform="translate(-102.006 -131.302)"/><path class="f" d="M171.637,183.918h-.594a.211.211,0,0,1-.206-.229v-4.08c0-.857-.216-1.188-1-1.188h-.81c-.776,0-1,.331-1,1.188v4.08a.212.212,0,0,1-.206.229h-.594a.211.211,0,0,1-.206-.229v-4.08a1.838,1.838,0,0,1,2-2.058h.81a1.839,1.839,0,0,1,2,2.058v4.08A.209.209,0,0,1,171.637,183.918Z" transform="translate(-123.509 -131.288)"/><path class="f" d="M197.1,170.1h-.584a.23.23,0,0,1-.229-.229v-.915a.23.23,0,0,1,.229-.229h.584a.23.23,0,0,1,.229.229v.915A.231.231,0,0,1,197.1,170.1Zm-.023,7.293h-.55a.23.23,0,0,1-.229-.229v-5.829a.23.23,0,0,1,.229-.229h.55a.23.23,0,0,1,.229.229v5.829A.23.23,0,0,1,197.079,177.4Z" transform="translate(-145.145 -124.766)"/><path class="f" d="M215.43,177.588h-.823c-.125,0-.172-.034-.263-.149l-2.275-2.811v2.731a.23.23,0,0,1-.229.229h-.55a.23.23,0,0,1-.229-.229v-8.14a.23.23,0,0,1,.229-.229h.55a.23.23,0,0,1,.229.229v4.755l2.285-2.572a.243.243,0,0,1,.229-.1h.8c.115,0,.172.057.172.125a.181.181,0,0,1-.057.125l-2.514,2.72,2.538,3.064a.154.154,0,0,1,.034.1C215.555,177.521,215.51,177.588,215.43,177.588Z" transform="translate(-156.066 -124.958)"/><path class="f" d="M244.573,183.918h-.594a.211.211,0,0,1-.206-.229v-4.138c0-.982-.422-1.12-1.029-1.12h-.263c-.732,0-.982.125-.982.776v4.482a.212.212,0,0,1-.206.229H240.7a.211.211,0,0,1-.206-.229v-4.482c0-.651-.25-.776-.982-.776h-.263c-.594,0-1.029.138-1.029,1.12v4.138a.212.212,0,0,1-.206.229h-.6a.211.211,0,0,1-.206-.229v-4.138a1.843,1.843,0,0,1,2.035-2h.263a2.044,2.044,0,0,1,1.485.412,2.14,2.14,0,0,1,1.485-.412h.263a1.844,1.844,0,0,1,2.035,2v4.138A.207.207,0,0,1,244.573,183.918Z" transform="translate(-175.403 -131.288)"/><path class="f" d="M280.729,181.1H276.9v.138c0,1.316.618,1.92,1.67,1.92a14.4,14.4,0,0,0,1.954-.159h.057a.162.162,0,0,1,.182.159v.388c0,.149-.047.229-.229.263a9.605,9.605,0,0,1-1.967.2,2.486,2.486,0,0,1-2.676-2.824v-.8a2.52,2.52,0,0,1,2.538-2.824c1.67,0,2.514,1.188,2.514,2.811v.479C280.945,181,280.867,181.1,280.729,181.1Zm-.8-.823c0-1.222-.492-1.84-1.5-1.84-.982,0-1.532.662-1.532,1.84v.057h3.03Z" transform="translate(-204.004 -131.295)"/><path class="f" d="M308.664,177.481a10.932,10.932,0,0,1-2.1.2c-1.7,0-2.491-1.11-2.491-2.824v-.823c0-1.8.823-2.8,2.491-2.8a8.243,8.243,0,0,1,1.337.115v-2.126a.216.216,0,0,1,.216-.216h.584a.207.207,0,0,1,.206.216v8C308.9,177.367,308.87,177.447,308.664,177.481Zm-.766-5.292a8.955,8.955,0,0,0-1.337-.081c-1.12,0-1.485.7-1.485,1.92v.823c0,1.245.354,1.944,1.485,1.944.388,0,.948-.034,1.337-.068Z" transform="translate(-224.842 -124.965)"/><path class="f" d="M334.213,170.1h-.584a.23.23,0,0,1-.229-.229v-.915a.23.23,0,0,1,.229-.229h.584a.23.23,0,0,1,.229.229v.915A.23.23,0,0,1,334.213,170.1Zm-.023,7.293h-.55a.23.23,0,0,1-.229-.229v-5.829a.23.23,0,0,1,.229-.229h.55a.23.23,0,0,1,.229.229v5.829A.228.228,0,0,1,334.189,177.4Z" transform="translate(-246.53 -124.766)"/><path class="f" d="M352,183.736a9.456,9.456,0,0,1-2.1.263c-1.7,0-2.491-1.11-2.491-2.824v-.8c0-1.714.776-2.824,2.491-2.824a9.536,9.536,0,0,1,2.1.263c.206.047.24.1.24.263v5.4C352.243,183.621,352.21,183.689,352,183.736Zm-.766-5.224a8.3,8.3,0,0,0-1.337-.115c-1.131,0-1.485.766-1.485,1.978v.8c0,1.2.354,1.978,1.485,1.978a8.437,8.437,0,0,0,1.337-.115Z" transform="translate(-256.889 -131.288)"/></g></svg>