<?xml version="1.0" encoding="utf-8"?>
<!-- Generator: Adobe Illustrator 27.4.0, SVG Export Plug-In . SVG Version: 6.00 Build 0)  -->
<svg version="1.1" id="Layer_1" xmlns="http://www.w3.org/2000/svg" xmlns:xlink="http://www.w3.org/1999/xlink" x="0px" y="0px"
	 viewBox="0 0 773.5 176.1" style="enable-background:new 0 0 773.5 176.1;" xml:space="preserve">
<style type="text/css">
	.st0{fill:#030363;}
	.st1{fill:url(#SVGID_1_);}
	.st2{fill:url(#SVGID_00000032638393565049844150000014731374729570275211_);}
	.st3{fill:url(#SVGID_00000181797618874642596370000012225531775053776319_);}
</style>
<path class="st0" d="M393.5,122.5L411.7,7.6h56.1c8.5,0,15.6,2.2,21.3,6.9c5.7,4.7,8.5,10.9,8.5,18.9c0,13.2-6.6,23.2-19.6,30.1
	c10.9,4,16.8,13,16.8,23.6c0.3,21-18.9,35.9-39.7,35.3L393.5,122.5L393.5,122.5z M428.1,75.7l-3.8,23.6h27.4
	c7.8,0,13.8-5.9,13.8-13.5c0-6.2-3.8-10.1-10.2-10.1L428.1,75.7L428.1,75.7z M435.2,30.8l-3.8,23.6h23.7c7.8,0,13-5.9,13-13.5
	c0-6.1-3.6-10.1-10-10.1L435.2,30.8L435.2,30.8z"/>
<path class="st0" d="M577.3,122.5H552l0.5-8.5c-6.4,6.8-14.9,10.2-25.1,10.2c-9.2,0-16.6-3.3-22.3-9.9c-5.5-6.6-8.3-15.1-8.3-25.5
	C496,62,517.5,39,540.9,39.5c10,0,17.3,3.5,21.7,10.4l2.2-8.7h25.3L577.3,122.5L577.3,122.5z M522.9,85.1c0,9.2,5.5,15.6,14.5,15.6
	c5.7,0,10.4-2.1,14.4-6.2c4-4.2,6.1-9.3,6.1-15.4c0-9.5-5.7-15.6-14.5-15.8C531.7,63.2,522.9,72.6,522.9,85.1z"/>
<path class="st0" d="M719.6,7.5l-11.7,68.2l27.9-34.5h29.1l-30.3,39.3l23.4,41.9h-31.2l-20.4-36.8l-5.9,36.8h-26.2l19.1-115
	L719.6,7.5L719.6,7.5z"/>
<path class="st0" d="M674.2,81.4l7.1-41.9L665.1,51c-0.3-0.4-0.6-0.7-1-1.1c-6.8-6.9-15.6-10.4-26.5-10.4
	c-26.5-0.7-50.6,22.2-50.1,48.3c0,10.6,3.3,19.4,10,26.2c6.8,6.8,15.8,10.2,26.7,10.2c22.2,0.4,42.7-15.1,48.5-35.8l-25.1-4.3
	c-0.8,3.8-2.6,7.3-5.3,10.3c-4,4.2-8.7,6.2-14.2,6.2c-8.8,0-14.4-6.4-14.4-15.6c0-12.5,9-21.8,20.3-21.8c3.7,0,6.8,1.2,9.2,3.4
	l-10.8,7.7L674.2,81.4L674.2,81.4z"/>
<g>
	
		<linearGradient id="SVGID_1_" gradientUnits="userSpaceOnUse" x1="13.7098" y1="114.1517" x2="376.9297" y2="104.2917" gradientTransform="matrix(1 0 0 -1 0 176.8706)">
		<stop  offset="0" style="stop-color:#DD00FF"/>
		<stop  offset="0.17" style="stop-color:#C60AFD"/>
		<stop  offset="0.52" style="stop-color:#8C25F9"/>
		<stop  offset="1" style="stop-color:#354EF4"/>
	</linearGradient>
	<path class="st1" d="M216.4,17.3c-6.8-6.4-15.8-9.7-26.7-9.7h-79.9L79.6,43.3l-19-35.7H29.3L61,63.8l-52,58.7h32.7l33.1-39.3
		l20.6,39.3h50.1l5.2-32.6h26c26.3,0.7,50.4-20.1,49.9-47C226.6,32.4,223.2,23.7,216.4,17.3L216.4,17.3z M120.2,111L93.3,63.7
		l42-47.7L120.2,111L120.2,111z M178.5,66.5h-24.1L160,31h24.2c8.8,0,14.2,5.9,14.2,14.7C198.4,57.4,190.1,66.5,178.5,66.5
		L178.5,66.5z"/>
	
		<linearGradient id="SVGID_00000084500454352239267400000012758281731541797795_" gradientUnits="userSpaceOnUse" x1="13.3699" y1="101.5775" x2="376.59" y2="91.7175" gradientTransform="matrix(1 0 0 -1 0 176.8706)">
		<stop  offset="0" style="stop-color:#DD00FF"/>
		<stop  offset="0.17" style="stop-color:#C60AFD"/>
		<stop  offset="0.52" style="stop-color:#8C25F9"/>
		<stop  offset="1" style="stop-color:#354EF4"/>
	</linearGradient>
	<path style="fill:url(#SVGID_00000084500454352239267400000012758281731541797795_);" d="M285.7,41.2l-2.3,8.7
		c-4.3-6.9-11.6-10.4-21.6-10.4C238.4,39,217,62,217.6,88.9c0,10.4,2.8,18.9,8.3,25.5c5.7,6.6,13.2,9.9,22.4,9.9
		c10.2,0,18.7-3.5,25.1-10.2l-0.5,8.5h25.3L311,41.2L285.7,41.2L285.7,41.2z M272.7,94.4c-4,4.2-8.7,6.2-14.4,6.2
		c-9,0-14.6-6.4-14.6-15.6c0-12.5,8.8-21.8,20.5-21.8c8.8,0.2,14.5,6.2,14.5,15.8C278.8,85.1,276.7,90.3,272.7,94.4L272.7,94.4z"/>
	
		<linearGradient id="SVGID_00000153706916522161907050000006957436117069459903_" gradientUnits="userSpaceOnUse" x1="12.83" y1="81.4991" x2="376.0399" y2="71.6491" gradientTransform="matrix(1 0 0 -1 0 176.8706)">
		<stop  offset="0" style="stop-color:#DD00FF"/>
		<stop  offset="0.17" style="stop-color:#C60AFD"/>
		<stop  offset="0.52" style="stop-color:#8C25F9"/>
		<stop  offset="1" style="stop-color:#354EF4"/>
	</linearGradient>
	<path style="fill:url(#SVGID_00000153706916522161907050000006957436117069459903_);" d="M370.8,41.2l-7.3,46.1
		c-1.4,8.3-8.5,13.3-15.4,13.3s-12.7-5-11.3-13.3l7.3-46.1h-26.2l-8.5,53.7c-3,19.1,9.7,30.1,24.8,30.1c10,0,18.2-2.9,24.6-8.7
		l-0.7,4.3c-3.9,21.9-31.4,24.5-54.6,22.5l-4.2,23.8c31,3.6,72.6-0.1,83.8-41.5c0.6-2.3,1-4.6,1.4-6.9l12.3-77.4L370.8,41.2
		L370.8,41.2z"/>
</g>
</svg>
